<svg width="92" height="92" viewBox="0 0 92 92" fill="none" xmlns="http://www.w3.org/2000/svg">
<path d="M46 0.5C20.8653 0.5 0.5 20.8653 0.5 46C0.5 71.1347 20.8653 91.5 46 91.5C71.1347 91.5 91.5 71.1347 91.5 46C91.5 20.8653 71.1347 0.5 46 0.5ZM28.7344 65.8839C28.4552 66.3601 28.0555 66.7544 27.5756 67.0272C27.0956 67.3 26.5523 67.4416 26.0003 67.4378C25.4377 67.4427 24.8849 67.2908 24.4037 66.9991C24.0455 66.7915 23.7319 66.5152 23.4807 66.1861C23.2295 65.857 23.0458 65.4815 22.9401 65.0812C22.8345 64.6809 22.8089 64.2637 22.8648 63.8535C22.9208 63.4433 23.0572 63.0481 23.2663 62.6908L26.372 57.5273C26.529 57.2608 26.7529 57.04 27.0216 56.8868C27.2902 56.7336 27.5943 56.6533 27.9036 56.6539H28.3627C30.6153 56.6539 32.1916 58.0087 32.6506 59.3209L28.7344 65.8839ZM55.0289 55.7277L34.69 55.75H21.172C20.7467 55.7518 20.3255 55.6672 19.9339 55.5013C19.5422 55.3354 19.1884 55.0917 18.8938 54.7849C18.5992 54.4782 18.37 54.1148 18.22 53.7167C18.0701 53.3187 18.0026 52.8944 18.0216 52.4695C18.0866 50.7633 19.5755 49.4714 21.2716 49.4714H31.0703L42.687 29.6972L38.9252 23.2886C38.0781 21.8281 38.4539 19.9025 39.9062 18.9844C40.2643 18.7528 40.6655 18.596 41.0857 18.5235C41.5059 18.4509 41.9364 18.4641 42.3513 18.5622C42.7663 18.6603 43.1572 18.8413 43.5004 19.0943C43.8436 19.3473 44.1321 19.6672 44.3486 20.0345L46.3595 23.4694H46.3819L48.3948 20.0345C48.6115 19.6691 48.8996 19.351 49.2419 19.0992C49.5842 18.8475 49.9736 18.6672 50.387 18.5692C50.8005 18.4712 51.2294 18.4575 51.6483 18.5288C52.0671 18.6001 52.4673 18.7551 52.825 18.9844C54.2692 19.9025 54.6409 21.8281 53.7878 23.2947L50.0259 29.7033L46.3697 35.9372L38.4295 49.4775V49.4998H50.1316C51.5981 49.4998 53.4364 50.288 54.1798 51.5555L54.2448 51.6875C54.9009 52.8027 55.2727 53.5684 55.2727 54.6836C55.2619 55.0457 55.1812 55.4023 55.035 55.7338L55.0289 55.7277ZM70.8219 55.75H65.3152V55.7723L69.3411 62.6197C69.7741 63.3408 69.9066 64.2032 69.7102 65.021C69.5138 65.8389 69.0042 66.5471 68.2909 66.993C67.7965 67.2944 67.2287 67.4539 66.6497 67.4541C66.0992 67.4538 65.5581 67.3112 65.079 67.0399C64.5999 66.7687 64.1991 66.3782 63.9156 65.9062L57.9661 55.7784L54.2692 49.4816L49.4998 41.3281C48.809 40.1639 48.4336 38.8398 48.4104 37.4863C48.3873 36.1327 48.7172 34.7965 49.3678 33.6094C50.3103 31.9458 51.0314 31.5091 51.0314 31.5091L61.6406 49.4531H70.763C72.4692 49.4531 73.9338 50.7653 74.013 52.4492C74.0294 52.8773 73.9591 53.3044 73.8064 53.7046C73.6536 54.1049 73.4215 54.4701 73.124 54.7785C72.8265 55.0868 72.4698 55.3317 72.0752 55.4987C71.6806 55.6657 71.2564 55.7511 70.828 55.75H70.8219Z" fill="#B1B1B1"/>
</svg>
