<svg width="87" height="87" viewBox="0 0 87 87" fill="none" xmlns="http://www.w3.org/2000/svg">
<path d="M43.5 50.0625C41.2286 50.0625 39.0082 49.389 37.1196 48.127C35.231 46.8651 33.759 45.0715 32.8898 42.973C32.0206 40.8745 31.7932 38.5654 32.2363 36.3376C32.6794 34.1099 33.7732 32.0636 35.3793 30.4574C36.9854 28.8513 39.0318 27.7575 41.2595 27.3144C43.4873 26.8713 45.7964 27.0987 47.8949 27.9679C49.9934 28.8372 51.787 30.3092 53.0489 32.1977C54.3108 34.0863 54.9844 36.3067 54.9844 38.5781C54.9844 41.624 53.7744 44.5451 51.6207 46.6988C49.4669 48.8525 46.5458 50.0625 43.5 50.0625ZM49.96 50.0625H37.04C35.7737 50.0592 34.5234 50.3466 33.3856 50.9027C32.2479 51.4588 31.2529 52.2687 30.4775 53.2699C29.7122 54.2445 29.1816 55.3823 28.9269 56.5951C28.6723 57.8078 28.7004 59.063 29.0092 60.2631L34.0049 79.9506C34.4643 81.7307 35.5035 83.3071 36.9585 84.4309C38.4135 85.5546 40.2014 86.1617 42.0398 86.1562H44.9602C46.8021 86.1663 48.5947 85.5613 50.0539 84.4372C51.5131 83.3131 52.5554 81.7341 53.0156 79.9506L58.0113 60.2631C58.3201 59.063 58.3482 57.8078 58.0936 56.5951C57.839 55.3823 57.3084 54.2445 56.543 53.2699C55.7655 52.2659 54.7673 51.4544 53.6257 50.8982C52.4841 50.342 51.2298 50.056 49.96 50.0625ZM65.7469 49.2422C65.5301 50.0847 65.6568 50.9788 66.099 51.7279C66.5413 52.477 67.2629 53.0199 68.1053 53.2371C68.3734 53.3052 68.649 53.3397 68.9256 53.3396C69.6526 53.3391 70.3589 53.0971 70.9335 52.6517C71.508 52.2063 71.9184 51.5826 72.1002 50.8787C73.2224 46.516 73.3317 41.9544 72.4197 37.5429C71.5077 33.1315 69.5985 28.9872 66.8383 25.4271C64.0781 21.8671 60.5401 18.9857 56.4949 17.0034C52.4498 15.0212 48.0047 13.9906 43.5 13.9906C38.9953 13.9906 34.5502 15.0212 30.5051 17.0034C26.4599 18.9857 22.9219 21.8671 20.1617 25.4271C17.4015 28.9872 15.4924 33.1315 14.5803 37.5429C13.6683 41.9544 13.7776 46.516 14.8998 50.8787C15.0021 51.3016 15.1876 51.7 15.4453 52.0506C15.703 52.4011 16.0279 52.6969 16.4011 52.9208C16.7742 53.1446 17.1881 53.292 17.6188 53.3544C18.0494 53.4167 18.4881 53.3928 18.9094 53.284C19.3307 53.1752 19.7262 52.9837 20.0728 52.7207C20.4194 52.4576 20.7102 52.1282 20.9283 51.7517C21.1464 51.3752 21.2874 50.9591 21.3432 50.5275C21.399 50.096 21.3684 49.6577 21.2531 49.2381C20.3818 45.8453 20.2981 42.2981 21.0083 38.868C21.7185 35.4378 23.2039 32.2156 25.3508 29.4477C27.4977 26.6798 30.2492 24.4396 33.3949 22.8985C36.5406 21.3574 39.9971 20.5562 43.5 20.5562C47.0029 20.5562 50.4594 21.3574 53.6051 22.8985C56.7508 24.4396 59.5023 26.6798 61.6492 29.4477C63.7961 32.2156 65.2815 35.4378 65.9917 38.868C66.7019 42.2981 66.6182 45.8453 65.7469 49.2381V49.2422ZM43.5 0.84375C34.3365 0.842712 25.4162 3.7926 18.06 9.25665C10.7037 14.7207 5.30261 22.4084 2.65633 31.1815C0.0100412 39.9546 0.259277 49.3467 3.36713 57.9671C6.47499 66.5875 12.2762 73.9779 19.9119 79.0441C20.6364 79.5259 21.5226 79.7002 22.3756 79.5287C23.2286 79.3571 23.9786 78.8539 24.4605 78.1295C24.6989 77.7705 24.8642 77.3681 24.947 76.9452C25.0299 76.5223 25.0286 76.0873 24.9433 75.6649C24.8579 75.2425 24.6903 74.8411 24.4498 74.4835C24.2093 74.1259 23.9008 73.8192 23.5418 73.5809C17.0814 69.2941 12.173 63.0409 9.54347 55.7472C6.9139 48.4534 6.70286 40.5068 8.94161 33.0838C11.1804 25.6607 15.7499 19.1559 21.9737 14.5323C28.1975 9.90865 35.7447 7.41202 43.498 7.41202C51.2512 7.41202 58.7984 9.90865 65.0222 14.5323C71.246 19.1559 75.8155 25.6607 78.0543 33.0838C80.293 40.5068 80.082 48.4534 77.4524 55.7472C74.8229 63.0409 69.9145 69.2941 63.4541 73.5809C62.7462 74.0698 62.2586 74.8171 62.0964 75.662C61.9342 76.5069 62.1102 77.3817 62.5867 78.098C63.0632 78.8144 63.8019 79.3149 64.6439 79.4919C65.4858 79.6688 66.3635 79.508 67.0881 79.0441C74.7238 73.9779 80.525 66.5875 83.6329 57.9671C86.7407 49.3467 86.99 39.9546 84.3437 31.1815C81.6974 22.4084 76.2963 14.7207 68.94 9.25665C61.5838 3.7926 52.6635 0.842712 43.5 0.84375Z" fill="#B1B1B1"/>
</svg>
