<svg width="77" height="91" viewBox="0 0 77 91" fill="none" xmlns="http://www.w3.org/2000/svg">
<path d="M63.9604 87.245C59.0196 92.0346 53.625 91.2783 48.4321 89.0096C42.9367 86.6904 37.895 86.5896 32.0971 89.0096C24.8371 92.1354 21.0054 91.2279 16.6696 87.245C-7.93375 61.8854 -4.30375 23.2662 23.6271 21.8546C30.4333 22.2075 35.1725 25.5854 39.1554 25.8879C45.1046 24.6779 50.8017 21.1992 57.1542 21.6529C64.7671 22.2579 70.5146 25.2829 74.2958 30.7279C58.5658 40.1558 62.2967 60.8771 76.7158 66.675C73.8421 74.2375 70.1113 81.7496 63.91 87.2954L63.9604 87.245ZM38.6513 21.5521C37.895 10.3092 47.0204 1.0325 57.5071 0.125C58.9692 13.1325 45.7096 22.8125 38.6513 21.5521Z" fill="#B1B1B1"/>
</svg>
