<svg width="104" height="82" viewBox="0 0 104 82" fill="none" xmlns="http://www.w3.org/2000/svg">
<path d="M54.5643 34.2108C54.5643 37.3178 52.6695 39.1053 49.3285 39.1053H44.941V29.3195H49.348C52.6695 29.3195 54.5643 31.0875 54.5643 34.2108ZM63.141 45.5143C63.141 47.0125 64.441 47.9875 66.482 47.9875C69.082 47.9875 71.032 46.3463 71.032 44.0323V42.6413L66.7875 42.911C64.3858 43.0735 63.141 43.9608 63.141 45.5143ZM104 9.04275V72.5998C103.999 74.8983 103.086 77.1025 101.46 78.7278C99.835 80.3532 97.6308 81.2666 95.3323 81.2675H8.66451C6.36595 81.2666 4.16177 80.3532 2.53644 78.7278C0.91111 77.1025 -0.00237349 74.8983 -0.00323486 72.5998V9.04275C-0.00237349 6.74418 0.91111 4.54001 2.53644 2.91468C4.16177 1.28934 6.36595 0.375861 8.66451 0.375H95.3323C97.6308 0.375861 99.835 1.28934 101.46 2.91468C103.086 4.54001 103.999 6.74418 104 9.04275ZM23.075 30.3823C24.5928 30.509 26.1073 29.625 27.066 28.5038C28.0053 27.3468 28.6195 25.7965 28.457 24.2235C27.1213 24.2788 25.4605 25.1075 24.5018 26.2645C23.634 27.259 22.8963 28.8645 23.075 30.3823ZM34.0178 43.834C33.982 43.7983 30.4785 42.4625 30.4428 38.4163C30.407 35.0395 33.2053 33.4145 33.332 33.3235C31.7428 30.977 29.2858 30.7235 28.4375 30.6683C26.234 30.5415 24.3555 31.913 23.309 31.913C22.243 31.913 20.6538 30.7203 18.9215 30.7593C17.7906 30.7893 16.6872 31.1151 15.7213 31.7041C14.7554 32.2931 13.9606 33.1248 13.416 34.1165C11.05 38.1985 12.8018 44.2273 15.0963 47.5488C16.2143 49.19 17.5695 50.997 19.3408 50.9255C21.0178 50.854 21.6873 49.8433 23.7088 49.8433C25.7498 49.8433 26.3283 50.9255 28.0963 50.9093C29.939 50.8735 31.0765 49.268 32.214 47.6235C33.4588 45.745 33.982 43.9413 34.021 43.8308L34.0178 43.834ZM58.4643 34.1945C58.4643 29.391 55.1233 26.1053 50.3555 26.1053H41.1125V50.7338H44.941V42.3195H50.232C55.0713 42.3195 58.4643 38.998 58.4643 34.1945ZM74.7143 38.4715C74.7143 34.916 71.8608 32.6215 67.4928 32.6215C63.4303 32.6215 60.4338 34.9518 60.3233 38.127H63.7715C64.0608 36.6093 65.468 35.618 67.3823 35.618C69.7288 35.618 71.0288 36.7003 71.0288 38.725V40.0803L66.261 40.3695C61.8183 40.6393 59.4198 42.4658 59.4198 45.6248C59.4198 48.8195 61.893 50.932 65.4485 50.932C67.8503 50.932 70.07 49.723 71.0808 47.7893H71.1523V50.75H74.6915V38.4715H74.7143ZM93.1678 32.8555H89.2873L84.7925 47.409H84.721L80.2263 32.8555H76.1995L82.68 50.7858L82.3388 51.868C81.7603 53.7108 80.8048 54.4323 79.1083 54.4323C78.734 54.4254 78.3601 54.4069 77.987 54.377V57.3378C78.2048 57.4093 79.1603 57.4288 79.4495 57.4288C83.187 57.4288 84.9388 56.002 86.4728 51.686L93.1678 32.8555Z" fill="#B1B1B1"/>
</svg>
