<svg width="45" height="45" viewBox="0 0 45 45" fill="none" xmlns="http://www.w3.org/2000/svg">
<path d="M38.1979 16.5417L28.4583 6.80217L31.724 3.53654C32.6024 2.65807 33.6818 2.21883 34.9621 2.21883C36.2424 2.21883 37.321 2.65807 38.1979 3.53654L41.4636 6.80217C42.342 7.68064 42.7813 8.76001 42.7813 10.0403C42.7813 11.3206 42.342 12.3992 41.4636 13.2761L38.1979 16.5417ZM1.87501 43.1251V33.3855L12.1875 23.073L0.0989685 10.8699L10.9271 0.041748L23.0729 12.2449L25.25 10.0678L34.9896 19.7501L32.8125 21.9272L44.9011 34.1303L34.1302 44.9011L21.9271 32.7553L11.6146 43.1251H1.87501ZM15.4531 19.8074L19.8073 15.4532L17.0573 12.7032L14.3073 15.3959L11.099 12.1876L13.7917 9.43758L10.8698 6.573L6.57293 10.9272L15.4531 19.8074ZM34.0729 38.4272L38.4271 34.073L35.5052 31.2084L32.8125 33.9011L29.5469 30.6928L32.2969 27.9428L29.4896 25.1928L25.1354 29.547L34.0729 38.4272Z" fill="white"/>
</svg>
