<svg width="30" height="30" viewBox="0 0 30 30" fill="none" xmlns="http://www.w3.org/2000/svg">
<path d="M13.4167 20.8333L20.3333 16.4167C20.5833 16.25 20.7778 16.0417 20.9167 15.7917C21.0556 15.5417 21.125 15.2778 21.125 15C21.125 14.7222 21.0556 14.4583 20.9167 14.2083C20.7778 13.9583 20.5833 13.75 20.3333 13.5833L13.4167 9.16667C12.8611 8.77778 12.2917 8.75 11.7083 9.08334C11.125 9.41667 10.8333 9.90278 10.8333 10.5417V19.4583C10.8333 20.0972 11.125 20.5833 11.7083 20.9167C12.2917 21.25 12.8611 21.2222 13.4167 20.8333ZM3.33334 30C2.41667 30 1.63167 29.6733 0.978336 29.02C0.325003 28.3667 -0.00110828 27.5822 2.82966e-06 26.6667V3.33334C2.82966e-06 2.41667 0.32667 1.63167 0.980003 0.978336C1.63334 0.325003 2.41778 -0.00110828 3.33334 2.82966e-06H26.6667C27.5833 2.82966e-06 28.3683 0.32667 29.0217 0.980003C29.675 1.63334 30.0011 2.41778 30 3.33334V26.6667C30 27.5833 29.6733 28.3683 29.02 29.0217C28.3667 29.675 27.5822 30.0011 26.6667 30H3.33334Z" fill="#A200BC"/>
</svg>
