<svg width="48" height="48" viewBox="0 0 48 48" fill="none" xmlns="http://www.w3.org/2000/svg">
<path d="M13.0123 44.5894L0.666668 47.3334L3.41067 34.9878C1.60358 31.6076 0.660897 27.8329 0.666668 24.0001C0.666668 11.1131 11.113 0.666748 24 0.666748C36.887 0.666748 47.3333 11.1131 47.3333 24.0001C47.3333 36.8871 36.887 47.3334 24 47.3334C20.1672 47.3392 16.3924 46.3965 13.0123 44.5894ZM12.3333 24.0001C12.3333 27.0943 13.5625 30.0617 15.7504 32.2497C17.9383 34.4376 20.9058 35.6668 24 35.6668C27.0942 35.6668 30.0617 34.4376 32.2496 32.2497C34.4375 30.0617 35.6667 27.0943 35.6667 24.0001H31C31 25.8566 30.2625 27.6371 28.9498 28.9498C27.637 30.2626 25.8565 31.0001 24 31.0001C22.1435 31.0001 20.363 30.2626 19.0503 28.9498C17.7375 27.6371 17 25.8566 17 24.0001H12.3333Z" fill="white"/>
</svg>
