<svg width="41" height="41" viewBox="0 0 41 41" fill="none" xmlns="http://www.w3.org/2000/svg">
<path d="M18.4583 8.24999H24.5833L31.3004 1.51249C31.4902 1.32113 31.716 1.16924 31.9648 1.06559C32.2136 0.961935 32.4805 0.908569 32.75 0.908569C33.0195 0.908569 33.2864 0.961935 33.5352 1.06559C33.784 1.16924 34.0098 1.32113 34.1996 1.51249L39.4671 6.80041C39.8473 7.18294 40.0608 7.7004 40.0608 8.23978C40.0608 8.77916 39.8473 9.29663 39.4671 9.67916L34.7917 14.375H18.4583V18.4583C18.4583 18.9998 18.2432 19.5191 17.8603 19.902C17.4774 20.2849 16.9581 20.5 16.4167 20.5C15.8752 20.5 15.3559 20.2849 14.973 19.902C14.5901 19.5191 14.375 18.9998 14.375 18.4583V12.3333C14.375 11.2504 14.8052 10.2117 15.571 9.44597C16.3367 8.6802 17.3754 8.24999 18.4583 8.24999ZM6.20833 18.4583V26.625L1.53291 31.3004C1.15265 31.6829 0.939209 32.2004 0.939209 32.7398C0.939209 33.2792 1.15265 33.7966 1.53291 34.1792L6.80041 39.4671C6.99021 39.6584 7.21602 39.8103 7.46482 39.914C7.71361 40.0176 7.98047 40.071 8.24999 40.071C8.51952 40.071 8.78638 40.0176 9.03517 39.914C9.28397 39.8103 9.50978 39.6584 9.69958 39.4671L18.4583 30.7083H26.625C27.1665 30.7083 27.6858 30.4932 28.0687 30.1103C28.4516 29.7274 28.6667 29.2081 28.6667 28.6667V26.625H30.7083C31.2498 26.625 31.7691 26.4099 32.152 26.027C32.5349 25.6441 32.75 25.1248 32.75 24.5833V22.5417H34.7917C35.3331 22.5417 35.8525 22.3266 36.2353 21.9437C36.6182 21.5608 36.8333 21.0415 36.8333 20.5V18.4583H22.5417V20.5C22.5417 21.583 22.1115 22.6216 21.3457 23.3873C20.5799 24.1531 19.5413 24.5833 18.4583 24.5833H14.375C13.292 24.5833 12.2534 24.1531 11.4876 23.3873C10.7219 22.6216 10.2917 21.583 10.2917 20.5V14.375L6.20833 18.4583Z" fill="#A200BC"/>
</svg>
