<svg width="40" height="32" viewBox="0 0 40 32" fill="none" xmlns="http://www.w3.org/2000/svg">
<path fill-rule="evenodd" clip-rule="evenodd" d="M4 0H28C28 0.530433 28.2107 1.03914 28.5858 1.41421C28.9609 1.78929 29.4696 2 30 2C30.5304 2 31.0391 1.78929 31.4142 1.41421C31.7893 1.03914 32 0.530433 32 0H36C37.0609 0 38.0783 0.421427 38.8284 1.17157C39.5786 1.92172 40 2.93913 40 4V28C40 29.0609 39.5786 30.0783 38.8284 30.8284C38.0783 31.5786 37.0609 32 36 32H32C32 31.4696 31.7893 30.9609 31.4142 30.5858C31.0391 30.2107 30.5304 30 30 30C29.4696 30 28.9609 30.2107 28.5858 30.5858C28.2107 30.9609 28 31.4696 28 32H4C2.93913 32 1.92172 31.5786 1.17157 30.8284C0.421427 30.0783 0 29.0609 0 28V4C0 2.93913 0.421427 1.92172 1.17157 1.17157C1.92172 0.421427 2.93913 0 4 0ZM32 8.002C32 8.53243 31.7893 9.04114 31.4142 9.41621C31.0391 9.79129 30.5304 10.002 30 10.002C29.4696 10.002 28.9609 9.79129 28.5858 9.41621C28.2107 9.04114 28 8.53243 28 8.002V8C28 7.46957 28.2107 6.96086 28.5858 6.58579C28.9609 6.21071 29.4696 6 30 6C30.5304 6 31.0391 6.21071 31.4142 6.58579C31.7893 6.96086 32 7.46957 32 8V8.002ZM30 18.002C30.5304 18.002 31.0391 17.7913 31.4142 17.4162C31.7893 17.0411 32 16.5324 32 16.002V16C32 15.4696 31.7893 14.9609 31.4142 14.5858C31.0391 14.2107 30.5304 14 30 14C29.4696 14 28.9609 14.2107 28.5858 14.5858C28.2107 14.9609 28 15.4696 28 16V16.002C28 16.5324 28.2107 17.0411 28.5858 17.4162C28.9609 17.7913 29.4696 18.002 30 18.002ZM32 24.002C32 24.5324 31.7893 25.0411 31.4142 25.4162C31.0391 25.7913 30.5304 26.002 30 26.002C29.4696 26.002 28.9609 25.7913 28.5858 25.4162C28.2107 25.0411 28 24.5324 28 24.002C28 23.4716 28.2107 22.9609 28.5858 22.5858C28.9609 22.2107 29.4696 22 30 22C30.5304 22 31.0391 22.2107 31.4142 22.5858C31.7893 22.9609 32 23.4716 32 24.002Z" fill="#A200BC"/>
</svg>
