<svg width="48" height="48" viewBox="0 0 48 48" fill="none" xmlns="http://www.w3.org/2000/svg">
<path d="M23.9767 0.666748C11.0967 0.666748 0.666656 11.1201 0.666656 24.0001C0.666656 36.8801 11.0967 47.3334 23.9767 47.3334C36.88 47.3334 47.3333 36.8801 47.3333 24.0001C47.3333 11.1201 36.88 0.666748 23.9767 0.666748ZM33.3333 33.3334C33.1175 33.5497 32.8611 33.7213 32.5788 33.8384C32.2965 33.9555 31.9939 34.0158 31.6883 34.0158C31.3827 34.0158 31.0801 33.9555 30.7979 33.8384C30.5156 33.7213 30.2592 33.5497 30.0433 33.3334L22.3667 25.6567C22.1462 25.4406 21.9708 25.1829 21.8506 24.8986C21.7305 24.6142 21.6679 24.3088 21.6667 24.0001V14.6667C21.6667 13.3834 22.7167 12.3334 24 12.3334C25.2833 12.3334 26.3333 13.3834 26.3333 14.6667V23.0434L33.3333 30.0434C34.2433 30.9534 34.2433 32.4234 33.3333 33.3334Z" fill="white"/>
</svg>
