<svg width="22" height="28" viewBox="0 0 22 28" fill="none" xmlns="http://www.w3.org/2000/svg">
<path d="M11 0.875C8.26591 0.878102 5.64468 1.96559 3.71139 3.89889C1.77809 5.83218 0.690602 8.45341 0.6875 11.1875C0.6875 20.0117 10.0625 26.6762 10.4621 26.9551C10.6197 27.0655 10.8075 27.1247 11 27.1247C11.1925 27.1247 11.3803 27.0655 11.5379 26.9551C11.9375 26.6762 21.3125 20.0117 21.3125 11.1875C21.3094 8.45341 20.2219 5.83218 18.2886 3.89889C16.3553 1.96559 13.7341 0.878102 11 0.875ZM11 7.4375C11.7417 7.4375 12.4667 7.65743 13.0834 8.06949C13.7001 8.48154 14.1807 9.06721 14.4645 9.75244C14.7484 10.4377 14.8226 11.1917 14.6779 11.9191C14.5333 12.6465 14.1761 13.3147 13.6516 13.8392C13.1272 14.3636 12.459 14.7208 11.7316 14.8654C11.0042 15.0101 10.2502 14.9359 9.56494 14.652C8.87971 14.3682 8.29404 13.8876 7.88199 13.2709C7.46993 12.6542 7.25 11.9292 7.25 11.1875C7.25 10.1929 7.64509 9.23911 8.34835 8.53585C9.05161 7.83259 10.0054 7.4375 11 7.4375Z" fill="#A200BC"/>
</svg>
